<svg id="Layer_1" data-name="Layer 1" xmlns="http://www.w3.org/2000/svg" xmlns:xlink="http://www.w3.org/1999/xlink" viewBox="0 0 552.8 259.87"><defs><style>.cls-1,.cls-2,.cls-6,.cls-9{fill:#fff;}.cls-1,.cls-6,.cls-7,.cls-9{stroke:#fff;}.cls-1,.cls-7{stroke-miterlimit:10;}.cls-3{clip-path:url(#clip-path);}.cls-4{clip-path:url(#clip-path-2);}.cls-5{clip-path:url(#clip-path-4);}.cls-6{stroke-miterlimit:10;stroke-width:4px;}.cls-7{fill:none;}.cls-8{clip-path:url(#clip-path-5);}.cls-9{stroke-miterlimit:10;stroke-width:4px;}</style><clipPath id="clip-path" transform="translate(0 54.47)"><ellipse class="cls-1" cx="420.5" cy="67.87" rx="63" ry="51.8" transform="translate(43.83 266.74) rotate(-37)"/></clipPath><clipPath id="clip-path-2" transform="translate(0 54.47)"><rect class="cls-1" x="330.9" y="-14.19" width="179.8" height="165.1" transform="translate(43.6 267.02) rotate(-37)"/></clipPath><clipPath id="clip-path-4" transform="translate(0 54.47)"><rect class="cls-1" x="357.84" y="17.02" width="125.9" height="103.7" transform="translate(43.29 267.1) rotate(-37)"/></clipPath><clipPath id="clip-path-5" transform="translate(0 54.47)"><rect class="cls-1" x="357.88" y="17.01" width="125.9" height="103.7" transform="translate(238.64 454.41) rotate(-74)"/></clipPath></defs><title>rs_school</title><path class="cls-2" d="M285.4,68l26.3-1.7c.6,4.3,1.7,7.5,3.5,9.8,2.9,3.6,6.9,5.4,12.2,5.4,3.9,0,7-.9,9.1-2.8a8.05,8.05,0,0,0,3.2-6.4,7.92,7.92,0,0,0-3-6.2c-2-1.8-6.7-3.6-14.1-5.2-12.1-2.7-20.8-6.3-25.9-10.9a21.72,21.72,0,0,1-7.8-17.3,23.18,23.18,0,0,1,4-13,26.29,26.29,0,0,1,12-9.6c5.3-2.3,12.7-3.5,22-3.5C338.3,6.6,347,8.7,353,13s9.6,11,10.7,20.3l-26,1.5c-.7-4-2.1-6.9-4.4-8.8s-5.3-2.8-9.2-2.8c-3.2,0-5.6.7-7.2,2a6.07,6.07,0,0,0-2.4,5,4.83,4.83,0,0,0,2,3.8q2,1.8,9.3,3.3c12.1,2.6,20.7,5.2,26,7.9s9.1,6,11.4,9.9a24.77,24.77,0,0,1,3.5,13.3,28.29,28.29,0,0,1-4.8,15.9,30.34,30.34,0,0,1-13.3,11c-5.7,2.5-12.9,3.8-21.5,3.8-15.2,0-25.7-2.9-31.6-8.8A34.32,34.32,0,0,1,285.4,68ZM6.3,97.6V8.2H52.4c8.5,0,15.1.7,19.6,2.2a20.71,20.71,0,0,1,10.9,8.2,24.84,24.84,0,0,1,4.2,14.5A23.92,23.92,0,0,1,75.2,54.7a30.5,30.5,0,0,1-9.7,3.5,27.61,27.61,0,0,1,7.2,3.3,27.89,27.89,0,0,1,4.4,4.7A31.16,31.16,0,0,1,81,71.8L94.4,97.7H63L48.2,70.2c-1.9-3.5-3.5-5.8-5-6.9a11.87,11.87,0,0,0-6.8-2.1H34V97.5H6.3ZM34,44.4H45.7A44.47,44.47,0,0,0,53,43.2a7,7,0,0,0,4.5-2.8,8.89,8.89,0,0,0-1-11.8c-1.8-1.5-5.3-2.3-10.3-2.3H34ZM0,174.2l26.3-1.7c.6,4.3,1.7,7.5,3.5,9.8,2.8,3.6,6.9,5.5,12.2,5.5,3.9,0,7-.9,9.1-2.8a8.2,8.2,0,0,0,3.2-6.4,7.92,7.92,0,0,0-3-6.2c-2-1.8-6.7-3.6-14.2-5.2-12.1-2.7-20.8-6.3-25.9-10.9A21.72,21.72,0,0,1,3.4,139a23.18,23.18,0,0,1,4-13,26.29,26.29,0,0,1,12-9.6c5.3-2.3,12.7-3.5,22-3.5,11.4,0,20.1,2.1,26.1,6.4s9.5,11,10.6,20.3l-26,1.5c-.7-4-2.1-6.9-4.4-8.8s-5.3-2.8-9.2-2.7q-4.8,0-7.2,2.1a5.81,5.81,0,0,0-2.4,5,4.83,4.83,0,0,0,2,3.8q2,1.8,9.3,3.3c12.1,2.6,20.7,5.2,26,7.9s9.1,6,11.4,9.9a25.69,25.69,0,0,1,3.6,13.2,28.77,28.77,0,0,1-4.8,15.8,30.34,30.34,0,0,1-13.3,11c-5.7,2.5-12.9,3.8-21.5,3.8-15.2,0-25.7-2.9-31.6-8.8S.8,183.2,0,174.2Z" transform="translate(0 54.47)"/><path class="cls-2" d="M133,167.2l24.2,7.3a45.16,45.16,0,0,1-7.7,17,33.5,33.5,0,0,1-13,10.3c-5.2,2.3-11.8,3.5-19.8,3.5-9.7,0-17.7-1.4-23.8-4.2s-11.5-7.8-16-14.9-6.7-16.2-6.7-27.3c0-14.8,3.9-26.2,11.8-34.1s19-11.9,33.4-11.9c11.3,0,20.1,2.3,26.6,6.8s11.2,11.6,14.4,21L132,146.1a21.65,21.65,0,0,0-2.7-6,15.87,15.87,0,0,0-5.7-4.9,16.17,16.17,0,0,0-7.5-1.7c-6.3,0-11.1,2.5-14.4,7.6-2.5,3.7-3.8,9.6-3.8,17.6q0,14.85,4.5,20.4c3,3.7,7.2,5.5,12.7,5.5,5.3,0,9.3-1.5,12-4.4,2.7-3.1,4.7-7.4,5.9-13Zm56.5-52.8h27.6v31.3h30.2V114.4h27.8v89.4H247.3V167.6H217.1v36.2H189.5Z" transform="translate(0 54.47)"/><path class="cls-2" d="M271.3,159.1c0-14.6,4.1-26,12.2-34.1s19.5-12.2,34-12.2c14.9,0,26.3,4,34.4,12S364,144,364,158.4c0,10.5-1.8,19-5.3,25.7a37.47,37.47,0,0,1-15.2,15.6c-6.7,3.7-15,5.6-24.9,5.6-10.1,0-18.4-1.6-25-4.8a38.11,38.11,0,0,1-16.1-15.2C273.4,178.3,271.3,169.6,271.3,159.1Zm27.6.1c0,9,1.7,15.5,5,19.5s7.9,5.9,13.7,5.9,10.5-1.9,13.8-5.8,4.9-10.8,4.9-20.8c0-8.4-1.7-14.6-5.1-18.4s-8-5.8-13.8-5.8a16.93,16.93,0,0,0-13.4,5.9q-5.1,5.85-5.1,19.5Zm93.4-.1c0-14.6,4.1-26,12.2-34.1s19.5-12.2,34-12.2c14.9,0,26.4,4,34.4,12S485,144,485,158.4c0,10.5-1.8,19-5.3,25.7a37.47,37.47,0,0,1-15.2,15.6c-6.7,3.7-15,5.6-24.9,5.6-10.1,0-18.4-1.6-25-4.8a38.11,38.11,0,0,1-16.1-15.2C394.4,178.3,392.3,169.6,392.3,159.1Zm27.6.1c0,9,1.7,15.5,5,19.5s7.9,5.9,13.7,5.9,10.5-1.9,13.8-5.8,4.9-10.8,4.9-20.8c0-8.4-1.7-14.6-5.1-18.4s-8-5.8-13.8-5.8a16.8,16.8,0,0,0-13.4,5.9q-5.1,5.85-5.1,19.5Z" transform="translate(0 54.47)"/><path class="cls-2" d="M482.1,114.4h27.6v67.4h43.1v22H482V114.4Z" transform="translate(0 54.47)"/><ellipse class="cls-2" cx="420.5" cy="67.87" rx="63" ry="51.8" transform="translate(43.83 321.21) rotate(-37)"/><ellipse class="cls-2" cx="420.5" cy="67.87" rx="63" ry="51.8" transform="translate(43.83 321.21) rotate(-37)"/><g class="cls-3"><path class="cls-1" d="M299.32,56.54,442.92-51.67,542.28,80.18,398.69,188.39Z" transform="translate(0 54.47)"/><g id="Layer_2" data-name="Layer 2"><rect class="cls-2" x="330.9" y="-14.19" width="179.8" height="165.1" transform="translate(43.6 321.49) rotate(-37)"/><g class="cls-4"><g id="Layer_1-2" data-name="Layer 1-2"><ellipse class="cls-1" cx="420.5" cy="67.87" rx="63" ry="51.8" transform="translate(43.83 321.21) rotate(-37)"/><ellipse class="cls-2" cx="420.5" cy="67.87" rx="63" ry="51.8" transform="translate(43.83 321.21) rotate(-37)"/><g class="cls-3"><path class="cls-1" d="M339.31,65.34,439.86-10.42l62.41,82.81L401.72,148.16Z" transform="translate(0 54.47)"/><rect class="cls-2" x="357.84" y="17.02" width="125.9" height="103.7" transform="translate(43.29 321.57) rotate(-37)"/><g class="cls-5"><ellipse class="cls-6" cx="420.5" cy="67.87" rx="63" ry="51.8" transform="translate(43.83 321.21) rotate(-37)"/></g><rect class="cls-7" x="357.84" y="17.02" width="125.9" height="103.7" transform="translate(43.29 321.57) rotate(-37)"/><rect class="cls-2" x="357.88" y="17.01" width="125.9" height="103.7" transform="translate(238.64 508.88) rotate(-74)"/><g class="cls-8"><path class="cls-9" d="M339.31,65.34,439.86-10.42l62.41,82.81L401.72,148.16Z" transform="translate(0 54.47)"/></g><rect class="cls-7" x="357.88" y="17.01" width="125.9" height="103.7" transform="translate(238.64 508.88) rotate(-74)"/><ellipse class="cls-6" cx="420.5" cy="67.87" rx="63" ry="51.8" transform="translate(43.83 321.21) rotate(-37)"/><path class="cls-1" d="M339.31,65.34,439.86-10.42l62.41,82.81L401.72,148.16Z" transform="translate(0 54.47)"/><rect class="cls-2" x="357.84" y="17.02" width="125.9" height="103.7" transform="translate(43.29 321.57) rotate(-37)"/><g class="cls-5"><ellipse class="cls-6" cx="420.5" cy="67.87" rx="63" ry="51.8" transform="translate(43.83 321.21) rotate(-37)"/></g><rect class="cls-7" x="357.84" y="17.02" width="125.9" height="103.7" transform="translate(43.29 321.57) rotate(-37)"/><rect class="cls-2" x="357.88" y="17.01" width="125.9" height="103.7" transform="translate(238.64 508.88) rotate(-74)"/><g class="cls-8"><path class="cls-9" d="M339.31,65.34,439.86-10.42l62.41,82.81L401.72,148.16Z" transform="translate(0 54.47)"/></g><rect class="cls-7" x="357.88" y="17.01" width="125.9" height="103.7" transform="translate(238.64 508.88) rotate(-74)"/><path class="cls-6" d="M299.32,56.54,442.92-51.67,542.28,80.18,398.69,188.39Z" transform="translate(0 54.47)"/></g><ellipse class="cls-7" cx="420.5" cy="67.87" rx="63" ry="51.8" transform="translate(43.83 321.21) rotate(-37)"/><ellipse class="cls-6" cx="420.5" cy="67.87" rx="63" ry="51.8" transform="translate(43.83 321.21) rotate(-37)"/><path class="cls-1" d="M392.4,61.3l10-7,12.3,17.5a34.78,34.78,0,0,1,4.9,9.1,11.67,11.67,0,0,1-.5,7.6,16.28,16.28,0,0,1-6.2,7.3c-3.3,2.3-6.1,3.6-8.5,4a11.84,11.84,0,0,1-6.9-1,16.7,16.7,0,0,1-6.1-5.1l8.6-8a12,12,0,0,0,2.6,2.9,4.07,4.07,0,0,0,2.4.8,3.16,3.16,0,0,0,1.9-.7,3.31,3.31,0,0,0,1.6-3,10.05,10.05,0,0,0-2.1-4.7l-14-19.7Zm30,11.1,9.1-7.2a8.64,8.64,0,0,0,3.7,2.6,6.4,6.4,0,0,0,5.8-1.1,6.07,6.07,0,0,0,2.6-3.3,3.51,3.51,0,0,0-2.2-4.4,2.92,2.92,0,0,0-.9-.2c-1.2-.1-3.3.4-6.4,1.7-5.1,2.1-9.1,2.9-12.1,2.6a9.65,9.65,0,0,1-7.2-4.3,10.78,10.78,0,0,1-1.9-5.7,11.5,11.5,0,0,1,1.9-6.5,25.18,25.18,0,0,1,7-6.8c4.2-2.9,7.9-4.3,11.1-4.3s6.2,1.5,9,4.6l-9,7.1a5.39,5.39,0,0,0-7.5-1l-.3.3a4.91,4.91,0,0,0-2.1,2.6,2.6,2.6,0,0,0,.4,2.4,2.23,2.23,0,0,0,1.7.9q1.2.15,4.2-1.2a53.14,53.14,0,0,1,11.4-3.7,11.51,11.51,0,0,1,6.6.7,10.3,10.3,0,0,1,4.6,3.9,12.93,12.93,0,0,1,2.3,6.9,12.59,12.59,0,0,1-2,7.3,24.46,24.46,0,0,1-6.8,6.8c-5.5,3.8-10,5.4-13.6,4.8a14.68,14.68,0,0,1-9.4-5.5Z" transform="translate(0 54.47)"/></g></g><rect class="cls-7" x="330.9" y="-14.19" width="179.8" height="165.1" transform="translate(43.6 321.49) rotate(-37)"/></g></g><ellipse class="cls-7" cx="420.5" cy="67.87" rx="63" ry="51.8" transform="translate(43.83 321.21) rotate(-37)"/></svg>